HIERARCHY
ROOT Hips
{
	OFFSET -3.958830 18.904000 13.208200
	CHANNELS 6 Xposition Yposition Zposition Zrotation Yrotation Xrotation 
	JOINT LHipJoint
	{
		OFFSET 0.000000 0.000000 0.000000
		CHANNELS 3 Zrotation Yrotation Xrotation
		JOINT LeftUpLeg
		{
			OFFSET 1.800000 -1.400000 0.085000
			CHANNELS 3 Zrotation Yrotation Xrotation
			JOINT LeftLeg
			{
				OFFSET 2.215000 -6.000000 0.000000
				CHANNELS 3 Zrotation Yrotation Xrotation
				JOINT LeftFoot
				{
					OFFSET 2.500000 -6.900000 0.000000
					CHANNELS 3 Zrotation Yrotation Xrotation
					JOINT LeftToeBase
					{
						OFFSET 0.200000 -0.500000 1.950000
						CHANNELS 3 Zrotation Yrotation Xrotation
						End Site
						{
							OFFSET 0.000000 0.000000 0.000000
						}
					}
				}
			}
		}
	}
	JOINT RHipJoint
	{
		OFFSET 0.000000 0.000000 0.000000
		CHANNELS 3 Zrotation Yrotation Xrotation
		JOINT RightUpLeg
		{
			OFFSET -1.800000 -1.400000 0.085000
			CHANNELS 3 Zrotation Yrotation Xrotation
			JOINT RightLeg
			{
				OFFSET -2.215000 -6.000000 0.000000
				CHANNELS 3 Zrotation Yrotation Xrotation
				JOINT RightFoot
				{
					OFFSET -2.500000 -6.900000 0.000000
					CHANNELS 3 Zrotation Yrotation Xrotation
					JOINT RightToeBase
					{
						OFFSET -0.200000 -0.500000 1.950000
						CHANNELS 3 Zrotation Yrotation Xrotation
						End Site
						{
							OFFSET 0.000000 0.000000 0.000000
						}
					}
				}
			}
		}
	}
	JOINT LowerBack
	{
		OFFSET 0.000000 0.000000 0.000000
		CHANNELS 3 Zrotation Yrotation Xrotation
		JOINT Spine
		{
			OFFSET -0.087000 1.940000 -0.288900
			CHANNELS 3 Zrotation Yrotation Xrotation
			JOINT Spine1
			{
				OFFSET 0.000000 1.950000 0.060000
				CHANNELS 3 Zrotation Yrotation Xrotation
				JOINT Neck
				{
					OFFSET 0.000000 0.000000 0.000000
					CHANNELS 3 Zrotation Yrotation Xrotation
					JOINT Neck1
					{
						OFFSET 0.000000 1.600000 0.340000
						CHANNELS 3 Zrotation Yrotation Xrotation
						JOINT Head
						{
							OFFSET 0.000000 1.667000 -0.240000
							CHANNELS 3 Zrotation Yrotation Xrotation
							End Site
							{
								OFFSET 0.000000 0.000000 0.000000
							}
						}
					}
				}
				JOINT LeftShoulder
				{
					OFFSET 0.000000 0.000000 0.000000
					CHANNELS 3 Zrotation Yrotation Xrotation
					JOINT LeftArm
					{
						OFFSET 2.700000 1.550000 -0.730000
						CHANNELS 3 Zrotation Yrotation Xrotation
						JOINT LeftForeArm
						{
							OFFSET 5.450000 0.000000 0.000000
							CHANNELS 3 Zrotation Yrotation Xrotation
							JOINT LeftHand
							{
								OFFSET 3.450000 0.000000 0.000000
								CHANNELS 3 Zrotation Yrotation Xrotation
								JOINT LeftHandIndex1
								{
									OFFSET 0.750000 0.000000 0.000000
									CHANNELS 3 Zrotation Yrotation Xrotation
									End Site
									{
										OFFSET 0.000000 0.000000 0.000000
									}
								}
							}
						}
					}
				}
				JOINT RightShoulder
				{
					OFFSET 0.000000 0.000000 0.000000
					CHANNELS 3 Zrotation Yrotation Xrotation
					JOINT RightArm
					{
						OFFSET -2.700000 1.550000 -0.730000
						CHANNELS 3 Zrotation Yrotation Xrotation
						JOINT RightForeArm
						{
							OFFSET -5.450000 0.000000 0.000000
							CHANNELS 3 Zrotation Yrotation Xrotation
							JOINT RightHand
							{
								OFFSET -3.450000 0.000000 0.000000
								CHANNELS 3 Zrotation Yrotation Xrotation
								JOINT RightHandIndex1
								{
									OFFSET -0.750000 0.000000 0.000000
									CHANNELS 3 Zrotation Yrotation Xrotation
									End Site
									{
										OFFSET 0.000000 0.000000 0.000000
									}
								}
							}
						}
					}
				}
			}
		}
	}
}
MOTION
Frames: 14
Frame Time: 0.016667
-1.324350 16.778250 -3.848520 -179.614203 46.636897 179.875446 -14.985459 11.857006 5.508525 18.405466 -4.160251 -34.581452 -25.530646 16.992918 30.901555 0.784525 9.080617 1.355360 0.079640 -0.362210 0.303760 18.443780 -11.164246 1.689833 -13.946111 -0.333350 0.676052 -0.237288 -5.919867 19.379672 -0.388042 -4.639880 3.016115 -0.371180 0.111440 0.214100 -4.733043 -0.678161 -7.963580 20.588593 1.740174 9.041527 -8.307159 3.687049 -0.899664 5.072334 -3.379137 -10.954236 -10.781896 7.366287 52.968247 -8.125190 9.254140 9.792320 -23.382699 0.424969 2.328745 -51.451534 15.313027 -12.576478 -20.960831 -14.123088 -0.561935 -3.704935 2.822936 0.436420 0.107370 0.001950 0.050760 12.102981 3.220150 7.540847 59.150739 -13.819937 -16.126146 22.105065 19.642841 0.617085 2.440125 -1.200305 -0.072710 -0.072440 -0.014120 -0.212300 
-1.307480 16.767810 -3.915180 -178.909759 50.106471 -179.917055 -15.042723 11.927191 5.498332 18.679472 -3.767633 -34.793647 -24.076796 17.817139 33.631882 0.849486 9.404455 1.232274 0.108640 -0.320090 0.318900 18.377246 -11.165089 1.686362 -14.245709 -0.202091 0.567521 0.422571 -6.184092 20.140546 -0.408987 -4.692795 2.985074 -0.358350 0.085040 0.212240 -4.658321 -0.740045 -7.983692 19.676530 2.182846 9.314353 -7.283994 4.062706 -0.967316 4.874237 -3.559855 -11.212056 -11.312415 8.309184 54.072099 -7.552900 9.911830 9.612540 -22.890919 0.552927 2.590775 -51.809889 15.718531 -12.756383 -22.077560 -14.091956 -0.547397 -3.677322 2.838307 0.446490 0.084890 0.027980 0.057050 12.169535 3.500620 7.451238 59.043710 -13.166848 -15.844730 21.287765 19.909576 0.660560 2.451094 -1.202636 -0.054830 -0.081000 -0.034330 -0.209540 
-1.291450 16.756730 -3.970030 -178.462471 53.393089 -179.906524 -15.106474 12.038027 5.459216 18.416239 -3.565421 -35.104669 -21.995853 18.367772 36.652624 0.901890 9.673415 1.135862 0.121890 -0.296210 0.328720 18.295794 -11.179882 1.682449 -14.643527 -0.039613 0.350345 1.066382 -6.489085 21.141989 -0.422088 -4.764779 2.952747 -0.353250 0.067210 0.204740 -4.480322 -0.839292 -8.018745 17.957781 2.741932 9.675328 -5.810443 4.493322 -1.019710 4.654694 -3.542789 -11.467865 -11.391904 8.890287 54.939227 -7.300730 10.666910 9.582750 -22.259935 0.591785 2.918490 -52.240973 16.122694 -13.079939 -23.518023 -14.474948 -0.460994 -3.655406 2.846548 0.454470 0.070250 0.046300 0.061680 12.245530 3.794568 7.358433 59.117645 -12.560370 -15.677477 20.307143 20.231254 0.674502 2.459681 -1.196891 -0.047670 -0.082380 -0.049220 -0.209520 
-1.278480 16.747360 -4.016290 -177.974135 56.540861 -179.944927 -15.169850 12.183029 5.366038 17.792888 -3.438632 -35.306378 -19.244872 18.519238 39.827004 0.932229 9.860390 1.067919 0.153630 -0.257450 0.362970 18.210473 -11.197691 1.702547 -14.944419 0.088861 0.305407 1.643277 -6.733607 21.772729 -0.449837 -4.816947 2.926235 -0.339760 0.036020 0.201010 -4.228590 -0.960511 -8.050919 15.880193 3.353425 10.083678 -4.080316 4.948119 -0.943646 4.480952 -3.390966 -11.712616 -11.174483 9.221807 55.880598 -7.429290 11.510450 8.923700 -21.573116 0.506000 3.255122 -52.752025 16.280369 -13.329851 -25.009468 -14.756812 -0.379364 -3.625271 2.850048 0.474190 0.047930 0.079670 0.070920 12.248983 4.148223 7.272867 59.010868 -11.814743 -15.445307 19.397889 20.668349 0.706450 2.464925 -1.194555 -0.039150 -0.080470 -0.078030 -0.216180 
-1.268840 16.741550 -4.053840 -177.296342 59.569392 -179.776616 -15.228193 12.361444 5.200398 16.899549 -3.303044 -35.369300 -15.758084 18.103468 42.885610 0.937490 9.919626 1.047145 0.168000 -0.236140 0.377080 18.130449 -11.216304 1.743348 -15.097161 0.171303 0.326582 2.304691 -6.961949 22.090716 -0.464567 -4.867743 2.910357 -0.333490 0.024980 0.193290 -3.947054 -1.103544 -8.039551 13.722888 4.021528 10.276767 -1.990375 5.394879 -0.696956 4.165527 -3.394925 -11.928222 -11.355797 9.644011 56.503077 -7.434790 12.248460 8.874170 -20.982011 0.323174 3.642149 -53.212063 16.390406 -13.570016 -26.897380 -15.170400 -0.237588 -3.604981 2.860414 0.480220 0.038890 0.094770 0.081550 12.694573 4.670116 7.225371 58.615472 -11.284514 -15.259581 18.008544 21.231906 0.681811 2.466590 -1.191734 -0.036940 -0.076060 -0.097970 -0.216240 
-1.260560 16.739380 -4.085030 -176.034339 62.471545 -179.063551 -15.279741 12.560417 5.016620 16.141623 -3.083434 -35.326301 -12.147102 17.337585 45.612359 0.933730 9.899489 1.049726 0.197480 -0.194440 0.397010 18.061130 -11.215120 1.796983 -14.907747 0.178479 0.481648 2.938723 -7.140922 22.235334 -0.490073 -4.894646 2.905548 -0.318770 0.009380 0.183770 -3.682957 -1.303220 -8.011349 11.960805 4.466684 10.512085 0.013149 5.682949 -0.619258 3.795786 -3.746778 -12.099084 -12.358108 10.576675 56.976474 -7.183480 12.956790 8.363120 -20.452246 0.453107 3.962590 -53.591997 16.683467 -13.810286 -29.184753 -15.706839 -0.031233 -3.572341 2.877784 0.488950 0.020390 0.117960 0.097810 13.285120 5.088890 7.113141 57.858514 -10.678705 -14.854519 16.606509 21.424803 0.639538 2.473761 -1.185572 -0.028180 -0.066150 -0.125350 -0.211860 
-1.251290 16.732750 -4.112080 -174.200267 65.103902 -177.712607 -15.332211 12.726372 4.813768 15.563240 -2.832139 -35.273302 -8.493484 16.301935 48.040486 0.910398 9.851258 1.068033 0.202060 -0.180710 0.395420 18.004475 -11.202936 1.854259 -14.568918 0.104328 0.750243 3.726311 -7.362178 22.166371 -0.504346 -4.942767 2.901686 -0.308110 0.015690 0.167000 -3.446506 -1.464646 -7.950907 10.248988 4.826423 10.411117 2.047315 5.796159 -0.245290 3.378175 -3.995270 -12.129647 -12.895689 11.303857 56.758687 -6.902390 13.726440 8.088050 -19.540579 0.615012 4.323116 -54.250931 16.760498 -14.060350 -31.597684 -16.363708 0.244093 -3.558573 2.888505 0.493350 0.018800 0.118210 0.110020 13.565705 5.293384 6.874222 57.135578 -9.699608 -14.219477 15.497167 21.002058 0.577661 2.478332 -1.177166 -0.040870 -0.048570 -0.136160 -0.211530 
-1.243490 16.729070 -4.136380 -171.798208 67.679714 -175.758522 -15.380560 12.885138 4.589280 15.050195 -2.557975 -35.108260 -4.783971 15.003211 50.176720 0.885985 9.761759 1.105728 0.213380 -0.161500 0.396480 17.956690 -11.181683 1.922016 -14.234667 -0.020810 1.127366 4.645588 -7.576744 21.708634 -0.524744 -4.982561 2.900969 -0.293550 0.025270 0.154300 -3.248060 -1.620760 -7.868301 8.734815 5.110295 10.150573 3.999419 5.803100 0.263966 2.910581 -4.299379 -12.113118 -13.555225 12.053717 56.305890 -6.573430 14.403720 7.652350 -18.500610 0.789287 4.688813 -54.881119 16.674478 -14.181595 -33.993162 -16.918735 0.550248 -3.541791 2.904001 0.499200 0.017240 0.120840 0.129090 13.781382 5.452202 6.608482 56.453200 -8.622861 -13.544223 14.350736 20.414315 0.497533 2.483382 -1.172167 -0.053100 -0.028810 -0.151810 -0.208720 
-1.237180 16.727670 -4.152080 -169.326912 70.207118 -173.643277 -15.424831 13.062963 4.334753 14.361095 -2.300919 -34.709019 -1.170664 13.433654 51.624935 0.852281 9.569141 1.174682 0.222240 -0.138620 0.384840 17.911126 -11.155717 1.989656 -14.085386 -0.123392 1.400099 5.716759 -7.813651 21.136660 -0.540286 -5.024825 2.896848 -0.278310 0.039730 0.142980 -3.002823 -1.799849 -7.759784 6.782955 5.442945 9.735138 6.156656 5.781993 0.881054 2.312851 -4.666545 -12.121368 -14.409210 12.832307 55.635841 -5.836340 14.742290 7.212840 -17.150010 0.921291 5.123423 -55.550866 16.392234 -14.181092 -36.753013 -17.413419 0.931069 -3.523038 2.933082 0.499370 0.016500 0.119630 0.146420 13.998877 5.681006 6.402390 55.788541 -7.670553 -12.980972 13.362584 20.010265 0.431716 2.485038 -1.170574 -0.060320 -0.011270 -0.161400 -0.198880 
-1.231310 16.729500 -4.164370 -166.547646 72.585694 -171.097939 -15.457627 13.241529 4.062205 13.585116 -2.072438 -34.024417 2.211938 11.731819 52.360298 0.823753 9.319266 1.276271 0.218700 -0.136780 0.372490 17.875925 -11.143460 2.050402 -14.058371 -0.197282 1.493928 6.731281 -8.027223 20.601698 -0.549681 -5.062863 2.890774 -0.274140 0.064270 0.136890 -2.754062 -1.944202 -7.618976 4.620706 5.829708 9.014180 8.262972 5.730490 1.619569 1.723446 -4.834341 -12.131897 -14.739665 13.212740 54.771308 -5.125050 14.967340 7.179530 -15.660894 0.844737 5.627637 -56.261555 15.939548 -14.126895 -39.213874 -17.868455 1.327666 -3.507527 2.960477 0.494970 0.022120 0.114790 0.164800 14.061175 5.908729 6.265266 55.704113 -6.951992 -12.705131 12.007488 19.785206 0.310637 2.490137 -1.169058 -0.071290 0.005560 -0.169660 -0.187190 
-1.237550 16.733630 -4.168940 -163.181924 74.842635 -167.937690 -15.488271 13.419042 3.824994 12.865867 -1.903379 -33.310047 5.237440 10.080018 52.635485 0.794914 9.063625 1.374039 0.223870 -0.123300 0.375180 17.842241 -11.116463 2.100396 -14.088987 -0.242491 1.390225 7.696479 -8.211855 20.119116 -0.558614 -5.070447 2.894810 -0.268230 0.076060 0.128140 -2.493343 -2.113153 -7.491942 2.389328 6.194766 8.498677 10.258588 5.705431 2.257065 1.202521 -4.924971 -12.135018 -14.917772 13.488479 54.146642 -4.594740 15.186250 6.489660 -14.128429 0.812386 6.066046 -56.923039 15.296410 -13.959423 -41.607986 -18.717029 1.922422 -3.485352 2.982911 0.495940 0.020130 0.118500 0.174760 13.905285 6.061870 6.129107 55.705046 -6.174909 -12.379601 11.014905 19.378210 0.222488 2.495995 -1.155339 -0.076130 0.027320 -0.177740 -0.180760 
-1.250390 16.742130 -4.169820 -158.434052 77.158391 -163.478925 -15.515796 13.624262 3.591970 12.318353 -1.633882 -32.261836 7.825658 8.594843 52.361200 0.765151 8.784971 1.463274 0.250580 -0.083810 0.395820 17.804562 -11.085537 2.152350 -14.204048 -0.236980 1.196620 8.654755 -8.394063 19.749334 -0.581451 -5.065942 2.893144 -0.256500 0.059030 0.127720 -2.251612 -2.314603 -7.367726 0.364588 6.549067 8.166099 12.042944 5.729722 2.833907 0.823153 -5.088655 -12.219951 -15.420809 13.918071 53.977647 -4.371490 15.490240 5.056610 -12.808590 0.859464 6.488100 -57.469592 14.894342 -13.906861 -43.914688 -20.286964 2.800316 -3.443090 3.017799 0.506590 0.001470 0.143930 0.179250 13.636569 6.222541 6.064706 55.619930 -5.491229 -12.091267 10.537747 19.085850 0.204639 2.501615 -1.141811 -0.061680 0.037650 -0.191810 -0.177960 
-1.264540 16.751320 -4.165600 -151.770686 79.483709 -156.949973 -15.552301 13.802500 3.384021 12.053748 -1.271041 -31.168333 9.669228 7.569813 51.790690 0.754964 8.558993 1.538749 0.269260 -0.053160 0.407350 17.764984 -11.047766 2.190533 -14.260529 -0.224491 0.887037 9.247656 -8.390899 19.107796 -0.592930 -5.010277 2.909026 -0.253610 0.045480 0.136120 -2.046735 -2.486144 -7.230969 -1.680949 7.015307 7.664937 13.704578 5.842115 3.398062 0.508429 -5.186902 -12.239329 -15.664182 14.230360 53.474448 -4.412210 16.005370 3.914850 -11.444586 1.015728 6.890930 -58.113757 14.485732 -13.865108 -45.931851 -22.052875 3.816350 -3.401507 3.067154 0.508520 -0.010440 0.166570 0.186290 13.154206 6.217971 5.967516 55.945935 -4.844524 -11.856486 9.919360 18.553664 0.153298 2.515006 -1.136859 -0.041590 0.034510 -0.205210 -0.170740 
-1.281900 16.763550 -4.154330 -141.599669 81.847821 -146.788511 -15.606413 13.989257 3.179320 11.949805 -0.798797 -29.870270 10.805322 6.959094 50.770936 0.752738 8.323877 1.627453 0.279810 -0.028000 0.401730 17.709063 -11.024045 2.202540 -14.277423 -0.159132 0.230261 9.353625 -8.244448 18.719492 -0.585971 -4.916538 2.946855 -0.255470 0.051660 0.145000 -1.879443 -2.670678 -7.053005 -3.951137 7.648261 6.955362 15.498084 6.073554 4.020074 0.093817 -5.314903 -12.154561 -15.884733 14.584822 52.330548 -4.112940 16.439480 3.249100 -10.082095 1.242228 7.257583 -58.960348 13.822492 -13.748898 -47.472720 -23.912804 4.910378 -3.365318 3.127212 0.493900 -0.010520 0.176470 0.203690 12.846034 6.140982 5.892690 56.178399 -4.520124 -11.769283 9.236292 18.178568 0.081507 2.526518 -1.142087 -0.020480 0.031480 -0.218920 -0.151900 
